{"images":[{"uri":"bike_color.png","name":"bike_color"},{"uri":"bike_normal.png","name":"bike_normal"}],"accessors":[{"componentType":5123,"bufferView":0,"count":34926,"type":"SCALAR","byteOffset":0},{"componentType":5126,"max":[0.027017654851078987,0.008720767684280872,0.006863603368401527],"bufferView":1,"count":12891,"type":"VEC3","min":[-0.013086133636534214,-0.008879722096025944,-0.02033865638077259],"byteOffset":0},{"componentType":5126,"bufferView":1,"count":12891,"type":"VEC3","byteOffset":12},{"componentType":5126,"bufferView":1,"count":12891,"type":"VEC2","byteOffset":24}],"textures":[{"source":0,"sampler":0},{"source":1,"sampler":0}],"buffers":[{"byteLength":482364,"uri":"bike.bin"}],"bufferViews":[{"byteLength":69852,"target":34963,"byteOffset":0,"buffer":0},{"byteLength":412512,"byteStride":32,"target":34962,"byteOffset":69852,"buffer":0}],"samplers":[{"magFilter":9729,"minFilter":9987}],"scene":0,"nodes":[{"children":[1],"name":"RootNode"},{"rotation":[-0.707106828689575,0,0,0.707106709480286],"scale":[100,100,100],"name":"Bike","mesh":0}],"materials":[{"normalTexture":{"index":1},"pbrMetallicRoughness":{"roughnessFactor":0.800000011920929,"baseColorFactor":[1,1,1,1],"baseColorTexture":{"index":0},"metallicFactor":0.200000002980232},"extensions":{"KHR_materials_specular":{"specularFactor":0.3}},"name":"BikePaint"}],"scenes":[{"nodes":[0],"name":"Root Scene"}],"asset":{"generator":"CG美术之家","version":"2.0"},"meshes":[{"primitives":[{"mode":4,"indices":0,"material":0,"attributes":{"POSITION":1,"TEXCOORD_0":3,"NORMAL":2}}],"name":"BikeBody"}]}